<?xml version="1.0" encoding="UTF-8" standalone="no"?><svg xmlns="http://www.w3.org/2000/svg" xmlns:xlink="http://www.w3.org/1999/xlink" fill="#000000" height="500.1" preserveAspectRatio="xMidYMid meet" version="1" viewBox="0.0 0.0 514.8 500.1" width="514.8" zoomAndPan="magnify"><defs><clipPath id="a"><path d="M 0 0 L 514.75 0 L 514.75 500.078125 L 0 500.078125 Z M 0 0"/></clipPath></defs><g><g clip-path="url(#a)" id="change1_1"><path d="M 120.609375 469.195312 C 117.007812 477.292969 109.410156 487.996094 99.910156 490.394531 C 103.210938 493.59375 107.007812 495.695312 111.710938 495.09375 C 114.410156 494.695312 115.109375 499.496094 112.410156 499.894531 C 101.410156 501.496094 94.808594 492.496094 89.410156 484.09375 C 82.507812 473.292969 77.710938 462.894531 76.308594 450.09375 C 75.410156 441.996094 75.308594 433.792969 73.507812 425.792969 C 72.109375 419.496094 68.710938 413.792969 67.210938 407.496094 C 65.507812 400.195312 68.007812 391.695312 76.210938 390.292969 C 77.609375 390.09375 78.308594 392.09375 76.808594 392.496094 C 63.109375 395.996094 73.808594 413.394531 76.210938 420.996094 C 78.808594 429.195312 79.109375 437.792969 80.109375 446.195312 C 81.410156 456.792969 84.109375 466.09375 89.609375 475.292969 C 91.808594 478.996094 94.410156 483.792969 97.710938 487.894531 C 102.308594 486.496094 106.109375 484.695312 109.808594 480.996094 C 113.609375 477.195312 116.210938 472.496094 119.507812 468.292969 C 120.007812 467.496094 121.007812 468.496094 120.609375 469.195312 Z M 196.507812 457.59375 C 211.308594 449.195312 223.910156 436.292969 231.109375 420.996094 C 231.710938 419.792969 233.308594 420.695312 233.109375 421.792969 C 230.007812 437.996094 211.210938 451.996094 197.410156 459.09375 C 196.410156 459.695312 195.507812 458.195312 196.507812 457.59375 Z M 431.410156 337.695312 C 420.609375 334.792969 409.710938 335.292969 398.710938 334.894531 C 390.410156 334.59375 380.910156 334.09375 373.808594 329.292969 C 373.007812 328.695312 373.507812 327.394531 374.507812 327.695312 C 384.910156 330.292969 394.507812 331.996094 405.210938 332.496094 C 414.308594 332.894531 423.210938 333.496094 431.910156 336.394531 C 432.609375 336.59375 432.308594 337.894531 431.410156 337.695312 Z M 354.507812 394.59375 C 348.808594 392.792969 342.007812 390.195312 337.910156 385.59375 C 337.410156 384.996094 338.007812 384.09375 338.710938 384.496094 C 341.210938 385.894531 343.507812 387.894531 346.007812 389.292969 C 348.808594 390.894531 351.710938 392.292969 354.808594 393.394531 C 355.507812 393.695312 355.210938 394.792969 354.507812 394.59375 Z M 421.007812 158.992188 C 424.007812 154.394531 430.007812 150.09375 435.808594 151.792969 C 436.710938 152.09375 436.808594 153.394531 435.808594 153.59375 C 433.410156 154.09375 431.007812 154.195312 428.609375 155.195312 C 426.210938 156.292969 423.808594 157.792969 422.109375 159.792969 C 421.609375 160.394531 420.609375 159.59375 421.007812 158.992188 Z M 390.109375 217.492188 C 370.507812 237.695312 353.507812 261.496094 325.710938 270.195312 C 325.007812 270.394531 324.710938 269.292969 325.410156 269.09375 C 339.808594 263.792969 351.710938 254.496094 362.109375 243.394531 C 370.808594 234.09375 378.507812 223.394531 388.808594 215.792969 C 389.808594 215.09375 390.910156 216.695312 390.109375 217.492188 Z M 303.710938 152.09375 C 299.808594 154.992188 298.410156 164.894531 297.109375 169.394531 C 295.507812 175.09375 293.910156 180.695312 292.507812 186.394531 C 292.308594 187.09375 291.210938 186.792969 291.410156 186.09375 C 293.308594 177.195312 295.308594 168.394531 297.710938 159.695312 C 298.710938 156.195312 299.007812 150.792969 303.308594 150.695312 C 304.109375 150.59375 304.210938 151.695312 303.710938 152.09375 Z M 341.308594 101.09375 C 347.808594 90.492188 353.710938 79.59375 356.210938 67.292969 C 358.507812 55.59375 359.507812 43.394531 362.609375 31.894531 C 362.910156 30.894531 364.609375 31.09375 364.507812 32.195312 C 363.609375 44.394531 360.910156 57.292969 358.210938 69.292969 C 355.507812 81.492188 349.007812 91.492188 342.308594 101.792969 C 341.910156 102.394531 340.808594 101.792969 341.308594 101.09375 Z M 298.007812 203.695312 C 302.410156 177.792969 311.007812 153.292969 320.507812 128.894531 C 325.109375 116.894531 329.910156 104.894531 334.007812 92.792969 C 338.308594 80.195312 341.308594 67.394531 345.109375 54.59375 C 345.410156 53.59375 347.109375 53.792969 347.007812 54.894531 C 344.308594 80.195312 332.910156 104.992188 323.710938 128.492188 C 314.007812 153.09375 303.910156 177.992188 299.210938 204.09375 C 299.007812 204.792969 297.910156 204.492188 298.007812 203.695312 Z M 103.410156 231.992188 C 116.308594 234.59375 129.109375 237.792969 141.808594 240.894531 C 152.109375 243.492188 163.609375 245.59375 173.109375 250.496094 C 174.210938 251.09375 173.410156 252.59375 172.308594 252.394531 C 161.308594 250.496094 150.410156 246.195312 139.507812 243.292969 C 127.308594 240.09375 115.007812 236.894531 103.007812 233.195312 C 102.308594 232.894531 102.609375 231.894531 103.410156 231.992188 Z M 85.410156 188.292969 C 84.210938 187.894531 84.710938 186.195312 85.910156 186.394531 C 96.410156 188.695312 105.910156 194.195312 114.609375 200.292969 C 115.007812 200.59375 114.609375 201.292969 114.210938 200.992188 C 105.308594 195.09375 95.507812 191.59375 85.410156 188.292969 Z M 66.210938 183.992188 C 88.910156 191.292969 111.609375 201.792969 132.007812 213.992188 C 132.609375 214.292969 132.210938 215.292969 131.507812 215.09375 C 130.808594 214.894531 130.109375 214.695312 129.410156 214.492188 C 129.109375 214.394531 129.109375 213.894531 129.507812 213.894531 C 125.808594 213.894531 119.308594 209.09375 115.808594 207.492188 C 110.609375 204.992188 105.410156 202.59375 100.109375 200.292969 C 88.710938 195.292969 77.109375 191.09375 65.609375 186.492188 C 64.109375 185.792969 64.710938 183.492188 66.210938 183.992188 Z M 156.109375 91.394531 C 156.808594 128.292969 163.710938 163.394531 180.609375 196.59375 C 181.007812 197.492188 179.808594 198.195312 179.308594 197.394531 C 161.808594 165.492188 151.308594 128.09375 153.507812 91.492188 C 153.609375 89.695312 156.007812 89.695312 156.109375 91.394531 Z M 178.210938 38.394531 C 180.609375 45.894531 180.808594 54.09375 181.910156 61.792969 C 183.210938 70.894531 185.210938 79.992188 187.710938 88.894531 C 187.910156 89.792969 186.609375 90.09375 186.410156 89.292969 C 183.507812 80.492188 181.109375 71.695312 179.507812 62.492188 C 178.109375 53.992188 177.609375 45.492188 175.210938 37.195312 C 174.808594 35.695312 176.910156 35.09375 177.507812 36.394531 C 177.808594 35.992188 178.210938 35.792969 178.808594 35.894531 C 190.308594 37.894531 199.210938 45.992188 202.710938 57.09375 C 203.007812 57.894531 201.710938 58.195312 201.507812 57.394531 C 197.910156 47.292969 188.808594 40.09375 178.210938 38.394531 Z M 244.007812 118.695312 C 238.710938 103.59375 234.710938 89.292969 225.007812 76.09375 C 224.609375 75.492188 225.609375 74.695312 226.007812 75.292969 C 235.609375 87.292969 244.808594 102.695312 245.609375 118.394531 C 245.710938 119.394531 244.308594 119.492188 244.007812 118.695312 Z M 238.210938 270.195312 C 239.609375 271.09375 240.910156 271.894531 242.308594 272.695312 C 242.910156 272.996094 243.507812 273.195312 244.109375 273.292969 C 245.910156 276.996094 247.507812 280.695312 249.109375 284.394531 C 245.410156 279.695312 241.710938 274.996094 238.210938 270.195312 Z M 259.609375 278.292969 C 260.109375 281.09375 260.507812 283.996094 260.808594 286.792969 C 259.910156 285.792969 259.109375 284.792969 258.210938 283.792969 C 255.910156 278.59375 253.609375 273.394531 251.609375 268.195312 C 247.710938 258.195312 243.910156 248.195312 240.308594 238.195312 C 241.808594 240.695312 243.710938 242.894531 246.007812 244.394531 C 247.210938 245.195312 248.410156 245.394531 249.410156 245.195312 C 249.808594 245.894531 250.210938 246.492188 250.710938 247.09375 C 250.710938 247.195312 250.808594 247.195312 250.910156 247.292969 C 250.609375 247.792969 250.507812 248.492188 250.710938 249.292969 C 253.007812 259.195312 257.910156 268.09375 259.609375 278.292969 Z M 294.210938 279.792969 C 291.410156 282.894531 288.507812 285.695312 285.410156 288.496094 C 287.710938 285.09375 289.808594 281.59375 291.710938 277.996094 C 292.609375 278.59375 293.410156 279.195312 294.210938 279.792969 Z M 316.410156 259.496094 L 316.410156 259.394531 L 316.507812 259.496094 C 316.507812 259.394531 316.507812 259.394531 316.410156 259.496094 Z M 249.410156 270.894531 C 249.410156 270.894531 249.507812 270.894531 249.410156 270.894531 C 249.410156 270.894531 249.507812 270.996094 249.507812 271.09375 C 249.507812 270.996094 249.507812 270.996094 249.410156 270.894531 Z M 266.410156 266.09375 C 266.410156 265.292969 266.410156 264.59375 266.308594 263.792969 C 266.710938 265.394531 267.007812 266.894531 267.410156 268.496094 C 267.109375 267.59375 266.710938 266.792969 266.410156 266.09375 Z M 287.410156 252.59375 C 287.808594 252.59375 288.210938 252.496094 288.609375 252.394531 C 288.007812 253.695312 287.308594 255.09375 286.710938 256.394531 C 286.808594 255.09375 287.109375 253.894531 287.410156 252.59375 Z M 237.710938 256.394531 C 237.507812 256.195312 237.609375 256.195312 237.710938 256.394531 Z M 237.109375 60.292969 C 237.210938 49.492188 235.609375 38.695312 233.910156 28.09375 C 233.808594 27.195312 232.210938 27.394531 232.308594 28.292969 C 233.410156 37.394531 233.710938 46.492188 234.109375 55.695312 C 233.609375 54.894531 233.109375 54.195312 232.609375 53.492188 C 226.609375 45.195312 218.910156 37.894531 210.109375 33.09375 C 210.210938 32.992188 210.308594 32.894531 210.410156 32.792969 C 210.507812 32.59375 210.710938 32.394531 210.808594 32.195312 C 211.507812 31.195312 210.210938 30.195312 209.210938 30.59375 C 212.410156 28.894531 214.109375 24.792969 216.710938 21.695312 C 219.109375 18.894531 221.910156 16.394531 224.710938 13.992188 C 227.710938 11.394531 233.410156 5.195312 237.609375 4.992188 C 241.507812 4.792969 242.710938 9.59375 244.808594 12.394531 C 254.210938 25.195312 269.210938 35.59375 267.609375 53.292969 C 267.507812 54.195312 268.007812 54.894531 268.710938 55.292969 C 261.609375 70.09375 259.007812 86.894531 256.910156 103.292969 C 256.808594 102.894531 256.710938 102.492188 256.507812 102.09375 C 258.808594 94.195312 256.910156 84.492188 256.507812 76.695312 C 255.808594 64.09375 255.410156 51.59375 252.210938 39.292969 C 251.910156 38.195312 250.308594 38.695312 250.507812 39.792969 C 252.910156 50.992188 253.109375 62.394531 253.609375 73.792969 C 253.910156 80.695312 255.308594 88.992188 254.609375 96.492188 C 252.808594 91.992188 250.808594 87.59375 248.910156 83.292969 C 245.210938 75.492188 241.507812 67.695312 237.109375 60.292969 Z M 507.808594 180.195312 C 507.710938 180.195312 507.609375 180.292969 507.507812 180.292969 C 507.609375 179.394531 507.609375 178.394531 507.710938 177.492188 C 507.808594 176.492188 506.109375 176.195312 505.910156 177.292969 C 504.710938 183.09375 502.109375 188.292969 500.410156 193.992188 C 499.710938 196.195312 503.109375 197.695312 504.109375 195.59375 C 506.109375 191.59375 506.910156 186.894531 507.308594 182.394531 C 507.507812 182.59375 507.808594 182.695312 508.109375 182.792969 C 515.410156 183.59375 507.410156 199.992188 505.910156 201.992188 C 505.710938 202.292969 505.507812 202.492188 505.308594 202.792969 C 504.410156 202.394531 503.308594 203.492188 503.710938 204.492188 C 501.210938 206.894531 498.210938 208.695312 495.308594 210.59375 C 490.808594 213.59375 486.007812 216.695312 485.308594 222.394531 C 485.109375 223.792969 487.109375 224.292969 487.910156 223.492188 C 492.808594 218.792969 497.410156 215.195312 502.910156 211.292969 C 503.910156 210.59375 504.808594 209.894531 505.609375 209.09375 C 506.808594 213.195312 506.710938 217.59375 504.808594 221.492188 C 502.710938 225.894531 498.410156 228.292969 495.910156 232.292969 C 492.808594 237.09375 491.808594 241.292969 486.609375 244.695312 C 482.308594 247.492188 477.308594 249.195312 472.609375 251.09375 C 463.410156 254.792969 454.210938 258.292969 445.007812 261.59375 C 445.007812 261.59375 445.007812 261.59375 445.109375 261.496094 C 450.609375 258.292969 455.710938 254.195312 461.007812 250.59375 C 467.007812 246.492188 473.308594 242.695312 479.109375 238.292969 C 479.808594 237.792969 479.210938 236.792969 478.410156 237.195312 C 472.308594 240.394531 465.808594 243.992188 459.609375 247.894531 C 465.410156 242.09375 471.210938 236.394531 477.808594 231.492188 C 479.007812 230.59375 478.007812 228.992188 476.710938 229.59375 C 465.210938 234.792969 456.910156 244.492188 447.609375 252.695312 C 442.109375 257.59375 436.210938 261.792969 429.609375 265.09375 C 423.609375 268.195312 417.109375 269.792969 411.210938 272.996094 C 411.210938 272.996094 411.210938 272.996094 411.109375 272.996094 C 404.609375 275.09375 398.007812 277.09375 391.507812 279.09375 C 401.910156 268.59375 408.710938 252.59375 421.410156 245.292969 C 422.109375 244.894531 421.507812 243.894531 420.808594 244.292969 C 412.007812 249.09375 405.910156 256.59375 399.808594 264.394531 C 394.710938 270.894531 389.808594 276.59375 383.710938 281.496094 C 382.210938 281.894531 380.710938 282.394531 379.210938 282.792969 C 382.308594 279.894531 385.109375 276.496094 387.507812 273.09375 C 398.507812 257.59375 405.710938 240.894531 421.609375 229.394531 C 422.308594 228.894531 421.609375 227.792969 420.910156 228.292969 C 408.609375 236.59375 400.507812 246.992188 392.910156 259.59375 C 386.910156 269.496094 380.609375 278.894531 371.609375 284.894531 C 364.910156 286.792969 358.109375 288.59375 351.308594 290.394531 C 341.507812 292.894531 331.609375 295.394531 321.710938 297.59375 C 316.308594 298.792969 310.007812 300.195312 304.210938 299.894531 C 305.808594 298.996094 307.410156 298.09375 309.007812 297.195312 C 319.808594 290.695312 330.507812 283.894531 341.210938 277.394531 C 342.007812 276.894531 341.308594 275.695312 340.507812 276.09375 C 331.308594 281.394531 322.007812 286.59375 312.808594 291.996094 C 308.410156 294.59375 304.007812 297.195312 299.410156 299.195312 C 297.910156 298.792969 296.410156 298.195312 295.109375 297.394531 C 298.910156 292.59375 302.109375 287.496094 305.007812 281.996094 C 305.109375 281.792969 305.210938 281.496094 305.308594 281.292969 C 305.910156 280.695312 306.410156 280.09375 306.808594 279.292969 C 308.410156 278.894531 309.808594 277.59375 309.007812 275.695312 C 309.007812 275.59375 308.910156 275.496094 308.910156 275.394531 C 312.210938 271.496094 315.710938 267.792969 319.609375 264.496094 C 320.910156 263.394531 320.710938 261.792969 319.910156 260.695312 C 320.710938 260.695312 321.507812 260.59375 322.308594 260.195312 C 324.808594 258.996094 327.609375 255.996094 329.808594 252.394531 C 331.210938 251.09375 332.507812 249.695312 333.808594 248.292969 C 340.109375 241.59375 346.210938 234.792969 352.410156 228.09375 C 353.109375 227.292969 352.007812 226.195312 351.210938 226.894531 C 345.109375 233.09375 339.109375 239.992188 332.507812 246.09375 C 334.410156 239.992188 333.410156 234.09375 326.109375 233.195312 C 320.109375 232.394531 315.410156 237.492188 312.507812 242.09375 C 309.308594 247.09375 307.609375 253.09375 308.609375 258.996094 C 309.007812 261.09375 310.609375 261.996094 312.308594 261.894531 C 309.109375 264.195312 306.210938 266.695312 303.507812 269.394531 C 301.609375 268.292969 299.507812 267.59375 297.308594 267.195312 C 303.710938 254.394531 308.910156 240.992188 313.808594 227.59375 C 314.210938 226.59375 312.609375 226.195312 312.308594 227.195312 C 307.007812 240.59375 301.507812 253.996094 294.710938 266.792969 C 294.007812 266.695312 293.410156 266.59375 292.710938 266.59375 C 288.109375 266.195312 285.910156 272.59375 289.007812 275.496094 C 289.109375 275.59375 289.308594 275.792969 289.410156 275.894531 C 286.007812 281.292969 282.308594 286.496094 278.609375 291.59375 C 278.910156 287.394531 279.710938 283.292969 280.808594 279.292969 C 282.007812 274.792969 283.507812 270.496094 284.609375 265.996094 C 287.808594 260.394531 290.507812 254.496094 293.109375 248.492188 C 299.308594 234.195312 305.109375 219.792969 311.109375 205.394531 C 311.410156 204.59375 310.007812 203.992188 309.609375 204.792969 C 303.910156 217.59375 298.210938 230.292969 292.507812 243.09375 C 293.007812 233.894531 294.007812 218.09375 283.710938 217.792969 C 278.210938 217.59375 277.007812 222.59375 277.007812 226.894531 C 277.007812 232.59375 276.308594 241.195312 279.609375 246.09375 C 280.109375 246.792969 280.808594 247.195312 281.507812 247.394531 C 281.507812 248.59375 282.109375 249.792969 282.910156 250.695312 C 280.410156 255.394531 277.109375 259.695312 274.808594 264.496094 C 274.507812 265.195312 274.210938 265.894531 273.910156 266.496094 C 273.910156 264.292969 273.808594 261.996094 273.710938 259.695312 C 273.109375 242.695312 272.308594 225.695312 272.308594 208.59375 C 272.410156 173.992188 275.507812 139.394531 285.507812 106.292969 C 285.808594 105.292969 284.210938 104.792969 283.910156 105.894531 C 274.308594 136.394531 270.410156 168.195312 269.609375 200.09375 C 269.210938 216.292969 269.507812 232.492188 270.210938 248.695312 C 270.410156 254.195312 270.710938 259.792969 270.808594 265.292969 C 266.710938 248.09375 261.109375 230.894531 259.609375 213.394531 C 257.007812 181.992188 261.808594 150.09375 268.410156 119.394531 C 268.507812 118.792969 267.609375 118.492188 267.507812 119.09375 C 261.910156 143.695312 257.007812 168.394531 256.507812 193.59375 C 254.910156 165.792969 257.410156 137.992188 260.910156 110.492188 C 264.109375 85.394531 266.507812 55.492188 286.808594 37.59375 C 291.507812 33.394531 296.910156 30.195312 303.007812 28.394531 C 307.410156 27.09375 312.007812 26.59375 316.109375 24.394531 C 307.910156 33.695312 302.109375 46.09375 298.507812 57.292969 C 298.210938 58.292969 299.710938 58.695312 300.109375 57.695312 C 303.007812 50.09375 306.507812 42.792969 311.007812 36.09375 C 315.109375 29.894531 320.308594 24.792969 324.710938 18.894531 C 325.007812 18.492188 324.808594 17.894531 324.410156 17.59375 C 325.308594 16.695312 326.210938 15.894531 327.210938 15.09375 C 334.710938 8.894531 343.507812 10.59375 349.808594 17.394531 L 349.910156 17.492188 C 350.210938 18.992188 352.308594 18.992188 352.507812 17.394531 C 352.410156 14.394531 353.609375 12.394531 356.109375 11.195312 C 357.710938 8.992188 359.710938 8.695312 362.007812 10.394531 C 365.910156 11.492188 367.308594 12.894531 369.609375 16.195312 C 372.210938 19.894531 374.109375 24.09375 375.308594 28.292969 C 377.808594 36.894531 377.910156 45.992188 376.109375 54.695312 C 374.308594 63.695312 370.710938 72.195312 366.410156 80.292969 C 362.410156 87.695312 357.109375 94.695312 354.507812 102.792969 C 353.808594 105.09375 357.210938 106.492188 358.410156 104.394531 C 358.609375 104.09375 358.710938 103.792969 358.910156 103.492188 C 359.109375 103.792969 359.609375 103.992188 360.007812 103.695312 C 366.808594 99.09375 372.609375 92.195312 379.910156 88.195312 C 376.507812 97.695312 370.507812 105.394531 365.210938 113.894531 C 359.609375 122.992188 354.910156 132.394531 350.410156 142.09375 C 350.007812 142.894531 351.210938 143.695312 351.710938 142.792969 C 357.210938 132.195312 363.308594 121.792969 369.808594 111.792969 C 374.609375 104.492188 382.109375 96.695312 382.007812 87.394531 C 382.007812 87.292969 382.007812 87.195312 381.910156 87.09375 C 383.210938 86.492188 384.609375 85.992188 386.007812 85.59375 C 399.710938 81.992188 409.109375 90.59375 412.109375 103.195312 C 412.410156 104.59375 414.710938 104.695312 415.007812 103.195312 C 417.109375 91.792969 406.507812 82.292969 395.910156 81.09375 C 382.109375 79.59375 369.710938 90.695312 360.710938 100.394531 C 373.210938 79.09375 387.507812 55.09375 380.507812 29.492188 C 378.308594 21.492188 372.710938 9.292969 364.007812 6.292969 C 357.910156 4.195312 351.007812 8.695312 350.109375 14.792969 C 346.507812 10.492188 341.109375 8.195312 335.308594 8.492188 C 325.710938 8.992188 321.308594 18.09375 313.007812 21.492188 C 303.808594 25.292969 295.109375 25.792969 286.808594 32.09375 C 281.109375 36.492188 276.308594 41.992188 272.507812 48.09375 C 272.109375 40.492188 268.609375 33.695312 263.910156 27.492188 C 260.808594 23.492188 257.210938 19.792969 253.910156 15.992188 C 250.109375 11.695312 247.609375 6.59375 244.007812 2.292969 C 238.710938 -3.90625 230.109375 3.992188 225.710938 7.792969 C 218.308594 14.195312 209.910156 21.292969 207.109375 31.09375 C 207.109375 31.195312 207.109375 31.292969 207.109375 31.292969 C 199.710938 27.894531 191.609375 26.195312 182.910156 27.195312 C 181.308594 27.394531 181.210938 29.894531 182.910156 29.792969 C 226.210938 27.792969 245.210938 83.394531 254.609375 116.59375 C 254.710938 116.894531 254.910156 117.195312 255.109375 117.394531 C 251.910156 142.195312 249.910156 167.195312 251.109375 192.195312 C 252.109375 213.195312 257.410156 233.792969 260.007812 254.496094 C 258.609375 252.195312 257.308594 249.894531 256.410156 247.394531 C 256.109375 246.394531 255.410156 245.792969 254.710938 245.59375 C 258.609375 237.195312 254.308594 218.492188 244.308594 216.792969 C 238.109375 215.695312 235.808594 220.894531 236.210938 225.894531 C 226.507812 198.09375 217.710938 169.894531 210.109375 141.492188 C 209.808594 140.492188 208.308594 140.894531 208.609375 141.894531 C 216.007812 171.394531 224.308594 200.59375 234.308594 229.394531 C 237.910156 239.792969 241.710938 250.09375 245.609375 260.292969 C 244.410156 258.59375 243.007812 257.09375 241.609375 255.59375 C 234.308594 240.992188 227.609375 226.195312 221.507812 211.09375 C 209.308594 180.695312 199.910156 149.292969 192.109375 117.492188 C 191.910156 116.894531 191.007812 117.09375 191.109375 117.792969 C 197.308594 151.394531 207.308594 184.09375 220.109375 215.695312 C 225.007812 227.695312 230.308594 239.59375 236.007812 251.195312 C 235.808594 251.09375 235.609375 250.894531 235.507812 250.792969 C 233.410156 249.394531 229.808594 250.195312 228.710938 252.59375 C 228.308594 253.394531 228.109375 254.195312 227.910156 254.996094 C 215.507812 236.09375 205.109375 215.695312 199.210938 193.792969 C 198.910156 192.792969 197.507812 193.195312 197.710938 194.195312 C 203.210938 217.695312 213.710938 239.09375 227.109375 259.09375 C 233.410156 268.496094 240.210938 277.59375 247.308594 286.394531 C 248.710938 288.09375 250.007812 289.894531 251.410156 291.695312 C 246.410156 289.59375 241.109375 287.792969 236.210938 285.695312 C 235.109375 285.195312 234.109375 286.792969 235.210938 287.394531 C 241.808594 290.496094 248.609375 294.496094 255.507812 297.195312 C 255.710938 297.496094 255.910156 297.792969 256.210938 297.996094 C 256.910156 299.195312 257.710938 300.394531 258.507812 301.59375 C 258.308594 301.59375 258.007812 301.59375 257.710938 301.695312 C 256.507812 301.996094 255.308594 302.394531 254.109375 302.792969 C 246.007812 299.996094 237.410156 298.195312 229.308594 295.292969 C 217.710938 291.292969 206.308594 286.59375 195.410156 280.996094 C 194.609375 280.59375 193.808594 281.792969 194.710938 282.292969 C 210.710938 291.394531 228.910156 300.09375 247.308594 304.59375 C 240.910156 305.59375 235.007812 306.195312 228.210938 305.09375 C 221.308594 303.894531 214.609375 301.695312 208.007812 299.496094 C 206.808594 299.09375 206.410156 300.894531 207.507812 301.292969 C 215.210938 304.292969 224.808594 308.195312 234.109375 308.996094 C 233.507812 309.195312 232.910156 309.394531 232.308594 309.496094 C 221.910156 312.195312 212.109375 312.195312 201.609375 310.09375 C 183.308594 306.496094 167.007812 302.496094 148.109375 304.09375 C 114.007812 307.09375 69.910156 318.394531 48.410156 282.894531 C 47.808594 281.894531 45.910156 282.496094 46.410156 283.792969 C 59.808594 320.792969 107.910156 314.292969 138.210938 310.59375 C 148.609375 309.292969 159.007812 308.292969 169.507812 309.195312 C 178.308594 309.894531 186.808594 312.292969 195.410156 314.195312 C 151.210938 320.292969 113.910156 349.996094 80.910156 378.394531 C 78.410156 380.496094 82.007812 383.996094 84.507812 381.996094 C 119.609375 352.59375 155.007812 322.195312 201.910156 315.59375 C 202.210938 315.695312 202.609375 315.695312 202.910156 315.792969 C 207.609375 316.59375 212.109375 316.894531 216.609375 316.792969 C 210.308594 319.292969 204.210938 322.195312 198.308594 325.09375 C 186.308594 330.996094 173.910156 337.496094 163.507812 346.09375 C 159.007812 349.792969 155.308594 353.996094 152.109375 358.792969 C 148.007812 365.09375 143.308594 368.792969 137.609375 373.496094 C 128.507812 380.894531 120.808594 391.292969 117.410156 402.59375 C 117.210938 403.292969 118.210938 403.695312 118.609375 403.09375 C 124.507812 390.292969 131.710938 380.996094 143.007812 372.695312 C 152.007812 366.09375 156.109375 355.996094 164.609375 348.792969 C 183.710938 332.59375 207.609375 324.09375 230.609375 314.996094 C 240.007812 313.09375 249.210938 309.894531 258.507812 306.59375 C 258.910156 306.59375 259.308594 306.496094 259.507812 306.195312 C 260.210938 305.792969 260.710938 305.09375 260.808594 304.394531 C 261.410156 305.09375 261.910156 305.792969 262.609375 306.496094 C 248.609375 311.09375 234.808594 316.695312 222.210938 324.195312 C 206.808594 333.394531 195.507812 345.792969 186.507812 361.195312 C 181.210938 370.292969 176.308594 379.394531 169.710938 387.695312 C 163.109375 395.996094 155.507812 403.496094 148.710938 411.59375 C 137.808594 424.59375 128.410156 439.894531 128.609375 457.394531 C 128.609375 458.195312 129.808594 458.195312 129.808594 457.394531 C 130.808594 436.792969 143.507812 421.195312 156.808594 406.59375 C 168.808594 393.496094 178.808594 380.394531 187.710938 364.996094 C 196.910156 349.09375 207.808594 336.292969 223.710938 326.792969 C 235.808594 319.496094 249.007812 314.59375 262.210938 309.792969 C 261.007812 310.894531 259.808594 311.996094 258.609375 312.996094 C 250.808594 319.894531 243.410156 326.996094 236.210938 334.496094 C 222.007812 349.292969 209.609375 365.195312 198.210938 382.195312 C 197.710938 382.894531 198.808594 383.496094 199.308594 382.792969 C 210.410156 367.695312 222.609375 353.09375 235.507812 339.496094 C 241.410156 333.292969 247.507812 327.292969 253.808594 321.496094 C 257.609375 317.996094 261.507812 313.996094 265.808594 310.695312 C 262.710938 321.894531 258.308594 332.59375 252.308594 342.59375 C 248.609375 348.894531 244.308594 354.792969 239.507812 360.292969 C 236.007812 364.394531 231.308594 367.996094 229.109375 372.996094 C 226.410156 379.292969 226.109375 385.894531 222.507812 392.09375 C 218.910156 398.292969 213.910156 403.695312 208.609375 408.59375 C 198.210938 418.195312 186.410156 426.09375 176.910156 436.792969 C 176.308594 437.496094 177.308594 438.59375 178.007812 437.894531 C 187.808594 426.996094 200.410156 419.292969 211.210938 409.496094 C 221.007812 400.59375 227.308594 390.695312 230.507812 377.792969 C 232.507812 369.894531 239.609375 364.695312 244.609375 358.59375 C 248.609375 353.695312 252.109375 348.496094 255.308594 342.996094 C 261.007812 333.195312 265.410156 322.695312 268.410156 311.792969 C 268.507812 311.894531 268.710938 312.09375 268.808594 312.195312 C 269.109375 312.59375 269.410156 312.894531 269.808594 313.09375 C 270.710938 313.894531 271.507812 314.695312 272.410156 315.496094 C 272.507812 315.59375 272.609375 315.59375 272.710938 315.59375 C 271.710938 324.09375 267.710938 332.894531 265.109375 340.59375 C 261.710938 350.59375 258.109375 360.496094 254.109375 370.292969 C 253.808594 371.09375 255.210938 371.695312 255.507812 370.894531 C 260.210938 360.195312 264.710938 349.496094 268.609375 338.496094 C 271.410156 330.496094 275.710938 321.496094 275.609375 312.792969 C 277.007812 312.292969 278.410156 311.59375 279.808594 310.792969 C 278.308594 329.496094 277.410156 347.996094 272.007812 366.195312 C 266.210938 385.496094 254.007812 402.292969 251.109375 422.496094 C 250.808594 424.394531 253.609375 425.195312 254.007812 423.292969 C 258.007812 402.59375 271.210938 385.09375 277.210938 364.894531 C 280.308594 354.496094 282.308594 343.59375 283.609375 332.496094 C 284.109375 335.394531 284.609375 338.292969 285.210938 340.996094 C 288.710938 356.996094 292.808594 372.894531 297.109375 388.695312 C 297.410156 389.894531 299.210938 389.394531 299.007812 388.195312 C 296.410156 373.195312 293.507812 358.292969 290.308594 343.292969 C 288.808594 336.394531 287.609375 329.496094 287.410156 322.394531 C 287.210938 316.292969 288.109375 310.394531 288.609375 304.394531 C 288.808594 304.394531 289.109375 304.292969 289.308594 304.292969 C 289.507812 305.996094 289.710938 307.792969 290.007812 309.496094 C 289.308594 312.394531 289.910156 314.996094 291.109375 317.496094 C 292.609375 327.394531 294.507812 337.292969 298.109375 346.292969 C 302.910156 358.09375 311.210938 367.59375 321.609375 374.792969 C 322.507812 375.394531 323.308594 373.996094 322.507812 373.292969 C 305.210938 360.894531 299.109375 342.695312 295.507812 323.394531 C 297.507812 325.394531 299.710938 327.195312 301.808594 328.792969 C 307.410156 332.996094 313.210938 336.894531 319.308594 340.394531 C 325.410156 343.894531 333.910156 346.496094 337.308594 353.09375 C 337.710938 353.894531 338.808594 353.195312 338.410156 352.394531 C 334.507812 344.496094 325.007812 341.496094 318.007812 336.996094 C 309.609375 331.59375 298.507812 325.292969 294.308594 315.894531 C 293.808594 312.496094 293.308594 308.996094 292.808594 305.59375 C 298.710938 311.894531 304.910156 317.894531 312.109375 322.59375 C 322.710938 329.496094 335.109375 332.496094 346.910156 336.792969 C 372.808594 346.292969 397.609375 359.695312 419.710938 376.195312 C 420.308594 376.59375 420.808594 375.695312 420.308594 375.195312 C 400.109375 359.695312 378.507812 346.792969 355.007812 337.09375 C 342.808594 332.09375 329.507812 328.894531 318.007812 322.59375 C 309.808594 318.09375 302.910156 311.695312 296.410156 304.996094 C 324.910156 314.394531 356.109375 317.292969 385.710938 319.09375 C 401.808594 320.09375 419.410156 322.59375 435.410156 320.59375 C 451.710938 318.496094 463.910156 305.195312 481.109375 309.996094 C 483.410156 310.695312 484.609375 307.496094 482.710938 306.195312 C 470.609375 298.292969 456.710938 307.59375 445.210938 312.195312 C 429.410156 318.496094 409.410156 314.792969 392.808594 313.894531 C 365.910156 312.496094 339.710938 309.59375 313.609375 304.59375 C 323.710938 303.394531 334.109375 299.894531 341.910156 297.894531 C 368.609375 291.195312 395.109375 283.394531 421.109375 274.394531 C 433.910156 269.996094 446.609375 265.292969 459.210938 260.394531 C 469.507812 256.394531 482.007812 253.09375 491.007812 246.394531 C 494.308594 243.894531 496.210938 241.09375 498.109375 237.394531 C 500.808594 231.992188 505.609375 228.492188 508.410156 223.292969 C 511.507812 217.394531 511.210938 210.992188 508.210938 205.59375 C 509.910156 203.695312 511.308594 201.59375 512.308594 199.195312 C 514.308594 195.292969 518.308594 177.792969 507.808594 180.195312 Z M 441.308594 379.792969 C 444.609375 375.792969 445.808594 372.394531 446.109375 367.292969 C 446.308594 364.195312 446.410156 361.292969 449.109375 359.394531 C 450.109375 358.695312 451.410156 359.695312 451.410156 360.695312 C 451.507812 362.894531 450.710938 364.996094 450.410156 367.195312 C 450.109375 369.195312 449.910156 371.292969 449.308594 373.292969 C 448.109375 376.695312 445.910156 379.792969 442.808594 381.695312 C 441.507812 382.394531 440.410156 380.792969 441.308594 379.792969 Z M 326.007812 408.195312 C 337.109375 414.792969 347.507812 411.292969 359.410156 412.195312 C 365.109375 412.695312 370.007812 415.195312 375.507812 416.695312 C 381.507812 418.292969 387.410156 417.894531 393.210938 416.292969 C 384.910156 410.792969 377.507812 404.59375 368.109375 400.695312 C 367.507812 400.394531 367.910156 399.394531 368.507812 399.695312 C 378.007812 403.496094 388.710938 407.894531 395.808594 415.59375 C 404.808594 412.695312 413.007812 408.59375 420.710938 403.496094 C 420.609375 403.394531 420.507812 403.195312 420.410156 402.996094 C 415.808594 388.09375 401.210938 381.996094 388.710938 374.59375 C 387.910156 374.09375 388.609375 372.996094 389.410156 373.394531 C 401.910156 379.59375 419.710938 386.496094 422.609375 402.09375 C 424.507812 400.792969 426.308594 399.394531 428.210938 397.894531 C 429.609375 396.792969 431.210938 398.09375 430.609375 399.695312 C 425.910156 410.496094 410.910156 415.292969 400.808594 419.195312 C 394.210938 421.695312 387.210938 423.496094 380.007812 422.792969 C 372.609375 422.09375 366.210938 417.996094 358.910156 417.195312 C 351.609375 416.394531 344.308594 418.09375 337.007812 416.792969 C 331.609375 415.792969 326.609375 413.496094 322.210938 410.09375 C 313.410156 403.394531 306.308594 393.394531 301.007812 383.894531 C 300.308594 382.695312 302.109375 381.59375 302.910156 382.792969 C 309.609375 392.292969 315.710938 402.09375 326.007812 408.195312 Z M 476.910156 351.996094 C 477.910156 359.59375 471.410156 366.292969 466.910156 371.496094 C 465.210938 373.394531 463.109375 375.292969 461.710938 377.394531 C 458.210938 382.292969 459.609375 384.09375 458.808594 388.792969 C 458.308594 391.792969 457.109375 394.59375 455.210938 397.09375 C 453.007812 399.996094 449.910156 402.496094 446.410156 403.394531 C 442.410156 414.996094 431.109375 421.496094 419.710938 424.59375 C 403.210938 428.996094 385.410156 430.09375 368.507812 432.292969 C 354.308594 434.195312 338.710938 436.59375 325.210938 430.292969 C 313.410156 424.792969 304.210938 411.996094 300.507812 399.792969 C 299.808594 397.394531 303.007812 396.496094 304.210938 398.195312 C 312.710938 409.59375 316.808594 422.394531 331.710938 427.09375 C 343.910156 430.894531 357.308594 428.59375 369.609375 426.996094 C 383.710938 425.195312 398.109375 423.996094 412.109375 421.59375 C 424.710938 419.394531 436.507812 414.695312 443.109375 403.695312 C 442.410156 403.695312 441.808594 403.59375 441.109375 403.496094 C 440.210938 403.292969 439.910156 401.792969 440.808594 401.394531 C 444.210938 399.792969 447.910156 398.695312 450.609375 395.996094 C 455.308594 391.292969 453.910156 386.792969 455.109375 381.09375 C 456.210938 375.996094 460.710938 372.394531 464.007812 368.695312 C 465.808594 366.695312 467.609375 364.59375 469.109375 362.496094 C 471.507812 359.09375 473.507812 353.59375 471.910156 349.394531 C 470.808594 346.59375 467.007812 344.496094 465.210938 342.09375 C 462.007812 337.59375 461.410156 332.394531 463.507812 327.292969 C 463.808594 326.496094 465.410156 326.496094 465.210938 327.496094 C 464.210938 335.792969 467.710938 339.394531 472.910156 344.792969 C 474.910156 346.894531 476.507812 349.09375 476.910156 351.996094 Z M 488.808594 318.792969 C 489.710938 322.09375 487.410156 324.195312 484.910156 325.894531 C 480.109375 329.09375 474.808594 332.894531 469.507812 335.195312 C 468.210938 335.792969 466.507812 334.09375 467.808594 332.996094 C 470.609375 330.695312 473.808594 328.996094 476.910156 327.09375 C 478.710938 325.996094 484.710938 323.496094 485.710938 320.792969 C 482.410156 320.59375 479.609375 318.695312 478.210938 315.59375 C 477.808594 314.792969 478.507812 314.09375 479.210938 314.09375 C 473.910156 311.394531 466.910156 316.195312 462.507812 319.09375 C 457.507812 322.394531 453.609375 326.59375 449.507812 330.894531 C 448.910156 331.496094 447.808594 330.695312 448.308594 329.996094 C 452.507812 322.996094 459.109375 317.394531 466.308594 313.59375 C 471.109375 311.09375 477.109375 308.292969 481.710938 312.496094 C 482.808594 313.496094 481.308594 315.496094 480.109375 314.59375 C 480.109375 314.59375 480.007812 314.59375 480.007812 314.496094 C 481.609375 316.792969 484.210938 317.996094 487.007812 317.59375 C 487.710938 317.496094 488.609375 317.894531 488.808594 318.792969 Z M 254.507812 429.09375 C 256.910156 440.996094 253.007812 454.195312 246.609375 464.195312 C 244.808594 467.09375 241.609375 472.996094 237.808594 473.394531 C 234.109375 473.792969 232.710938 467.59375 230.109375 467.292969 C 230.109375 467.695312 230.007812 467.996094 229.808594 468.394531 C 220.910156 482.695312 202.007812 487.792969 186.710938 491.894531 C 176.507812 494.695312 165.910156 497.496094 155.210938 497.496094 C 144.308594 497.59375 133.808594 493.996094 122.910156 493.695312 C 121.710938 493.695312 121.710938 491.894531 122.910156 491.792969 C 132.410156 490.894531 141.507812 492.59375 151.007812 492.792969 C 161.308594 492.996094 171.308594 490.792969 181.210938 488.09375 C 198.410156 483.496094 213.609375 478.695312 226.210938 465.59375 C 227.109375 464.695312 228.210938 464.792969 229.007812 465.292969 C 230.808594 464.496094 231.109375 464.496094 233.210938 465.394531 C 235.410156 466.292969 234.308594 467.292969 236.710938 467.792969 C 240.210938 468.496094 241.308594 464.792969 243.109375 461.996094 C 249.410156 451.695312 250.410156 441.09375 251.007812 429.394531 C 251.109375 427.695312 254.109375 427.09375 254.507812 429.09375 Z M 145.507812 190.394531 C 146.609375 190.394531 147.710938 190.394531 148.910156 190.394531 C 150.007812 190.492188 151.210938 190.292969 152.210938 190.394531 C 152.308594 190.394531 152.507812 190.394531 152.609375 190.394531 C 157.609375 198.09375 163.109375 205.59375 169.308594 212.492188 C 169.808594 212.992188 170.308594 213.292969 170.910156 213.394531 C 172.308594 215.992188 173.808594 218.492188 175.308594 220.992188 C 167.007812 213.695312 158.910156 206.292969 151.007812 198.292969 C 148.507812 195.792969 146.007812 193.195312 143.410156 190.695312 C 144.007812 190.492188 144.710938 190.394531 145.507812 190.394531 Z M 8.910156 200.09375 C 11.410156 192.292969 11.910156 183.992188 17.808594 177.792969 C 25.609375 169.695312 37.308594 166.792969 45.808594 159.394531 C 46.210938 159.59375 46.710938 159.695312 47.308594 159.492188 C 61.507812 154.992188 74.808594 154.09375 89.109375 158.59375 C 102.410156 162.792969 114.109375 170.792969 124.609375 179.695312 C 142.910156 195.09375 158.507812 215.492188 179.410156 227.59375 C 181.710938 231.09375 184.109375 234.492188 186.710938 237.894531 C 193.710938 247.195312 201.410156 255.996094 209.910156 263.996094 C 218.308594 271.996094 227.808594 280.996094 238.210938 286.292969 C 240.410156 287.394531 243.109375 284.496094 241.007812 282.59375 C 232.210938 274.695312 222.308594 268.292969 213.808594 260.09375 C 204.910156 251.59375 196.609375 242.292969 189.308594 232.292969 C 175.507812 213.394531 164.808594 192.292969 157.808594 169.894531 C 153.609375 156.394531 150.808594 142.492188 148.710938 128.492188 C 146.710938 114.792969 143.710938 99.792969 147.210938 86.09375 C 150.109375 74.792969 156.507812 64.792969 160.410156 53.894531 C 162.007812 49.492188 163.210938 44.894531 163.507812 40.195312 C 163.710938 37.792969 162.710938 34.195312 163.410156 31.894531 C 166.507812 21.292969 173.210938 30.09375 175.609375 33.195312 C 176.507812 34.394531 178.308594 32.894531 177.710938 31.59375 C 175.109375 26.792969 168.910156 19.492188 162.910156 23.792969 C 157.007812 27.992188 160.007812 40.292969 158.609375 46.195312 C 156.609375 54.492188 152.609375 62.09375 149.007812 69.894531 C 147.808594 65.292969 145.910156 60.59375 144.609375 56.195312 C 144.308594 55.195312 142.710938 55.59375 143.007812 56.59375 C 144.410156 62.09375 145.210938 68.394531 147.308594 73.792969 C 147.007812 74.59375 146.609375 75.292969 146.308594 76.09375 C 145.410156 78.394531 144.609375 80.792969 143.910156 83.09375 C 138.808594 72.792969 131.308594 60.695312 131.210938 49.292969 C 131.210938 48.292969 129.609375 48.292969 129.609375 49.292969 C 129.308594 62.195312 136.609375 75.695312 142.609375 86.894531 C 142.710938 87.09375 142.808594 87.195312 142.910156 87.292969 C 141.507812 93.894531 141.308594 100.695312 141.808594 107.792969 C 143.609375 132.894531 148.109375 157.492188 156.308594 180.695312 C 146.710938 156.894531 136.007812 133.292969 130.609375 108.292969 C 130.410156 107.292969 128.808594 107.695312 129.007812 108.695312 C 132.109375 125.195312 137.609375 140.792969 143.609375 156.492188 C 145.910156 162.59375 148.007812 169.09375 150.308594 175.59375 C 147.808594 171.195312 145.410156 166.792969 143.109375 162.292969 C 134.710938 146.09375 125.410156 129.59375 122.007812 111.394531 C 118.710938 94.09375 117.507812 74.195312 119.410156 56.695312 C 120.410156 47.492188 123.609375 37.792969 130.808594 31.695312 C 138.507812 25.195312 148.910156 25.394531 156.710938 31.394531 C 157.910156 32.394531 159.210938 30.394531 158.308594 29.394531 C 148.109375 17.394531 130.210938 23.492188 122.109375 34.695312 C 110.210938 51.09375 113.210938 75.695312 114.410156 94.59375 C 115.109375 105.292969 116.609375 115.992188 120.007812 126.195312 C 123.507812 136.394531 128.609375 146.09375 133.410156 155.695312 C 138.808594 166.492188 144.507812 177.292969 150.910156 187.492188 C 150.507812 187.292969 150.210938 187.195312 149.710938 187.09375 C 148.507812 186.894531 147.210938 186.695312 145.910156 186.695312 C 144.210938 186.59375 141.808594 186.394531 140.308594 187.394531 C 133.710938 180.894531 126.910156 174.695312 119.410156 169.09375 C 99.507812 154.195312 69.507812 142.292969 45.609375 155.292969 C 44.910156 155.695312 44.609375 156.292969 44.609375 156.992188 C 33.308594 165.894531 16.710938 168.195312 9.910156 182.09375 C 6.207031 189.695312 4.308594 198.59375 1.308594 206.492188 C -1.492188 214.09375 0.507812 219.695312 4.410156 226.492188 C 5.910156 229.09375 10.007812 226.695312 8.410156 224.09375 C 5.308594 218.894531 3.507812 214.195312 5.507812 208.195312 C 6.507812 205.59375 7.910156 202.992188 8.910156 200.09375 Z M 37.109375 278.496094 C 25.609375 274.996094 18.109375 263.195312 14.007812 250.394531 C 13.910156 250.292969 13.710938 250.292969 13.609375 250.195312 C 12.710938 249.695312 12.808594 248.695312 13.308594 248.09375 C 10.808594 239.394531 9.808594 230.292969 10.109375 223.292969 C 10.410156 217.492188 11.910156 212.09375 14.609375 206.894531 C 18.210938 200.195312 20.210938 194.09375 22.007812 186.695312 C 24.109375 177.894531 27.410156 169.492188 36.609375 166.292969 C 38.007812 165.792969 38.507812 167.894531 37.210938 168.492188 C 25.507812 173.292969 26.308594 187.394531 23.609375 197.492188 C 22.007812 203.394531 19.007812 208.195312 16.910156 213.492188 C 44.710938 223.492188 72.507812 233.59375 100.308594 243.695312 C 114.410156 248.792969 128.609375 253.996094 142.710938 259.195312 C 156.210938 264.195312 169.507812 269.792969 183.609375 272.996094 C 184.308594 273.09375 184.007812 274.09375 183.308594 273.996094 C 154.710938 268.59375 126.910156 256.292969 99.609375 246.492188 C 71.710938 236.492188 43.808594 226.492188 15.910156 216.394531 C 15.109375 218.894531 14.609375 221.59375 14.507812 224.492188 C 14.410156 232.992188 15.910156 241.894531 19.210938 249.992188 C 29.007812 255.292969 39.308594 259.695312 50.007812 262.894531 C 60.210938 265.996094 70.710938 267.59375 81.109375 269.894531 C 91.109375 272.195312 98.808594 276.59375 107.410156 282.09375 C 117.210938 288.292969 128.007812 292.792969 139.308594 295.292969 C 139.910156 295.394531 139.710938 296.394531 139.007812 296.292969 C 128.609375 294.195312 118.910156 290.996094 109.609375 285.792969 C 99.007812 279.792969 90.007812 274.292969 77.910156 271.894531 C 57.910156 267.894531 39.109375 263.195312 21.109375 254.195312 C 25.210938 262.496094 31.007812 269.792969 38.808594 274.894531 C 40.609375 275.996094 39.410156 279.195312 37.109375 278.496094 Z M 406.910156 132.195312 C 407.710938 133.792969 408.609375 135.992188 409.808594 137.59375 C 403.609375 140.59375 397.808594 144.195312 392.507812 148.792969 C 381.710938 158.195312 373.308594 169.792969 360.710938 176.695312 C 363.910156 171.695312 367.109375 166.792969 370.609375 161.992188 C 380.210938 148.894531 393.308594 138.394531 403.808594 125.992188 C 404.609375 128.195312 405.910156 130.195312 406.910156 132.195312 Z M 414.007812 106.992188 C 401.410156 127.292969 381.410156 140.894531 367.007812 159.695312 C 359.308594 169.695312 352.609375 180.492188 345.808594 191.09375 C 338.007812 203.09375 328.808594 214.992188 322.507812 227.695312 C 321.507812 229.792969 324.308594 232.292969 325.910156 230.292969 C 327.808594 227.894531 329.710938 225.492188 331.410156 222.894531 C 331.710938 223.195312 332.308594 223.292969 332.808594 222.894531 C 343.609375 213.894531 356.507812 207.492188 366.910156 197.992188 C 377.609375 188.09375 383.109375 173.59375 395.410156 165.394531 C 396.308594 164.792969 395.507812 163.394531 394.507812 163.894531 C 382.410156 171.59375 376.710938 184.59375 366.710938 194.492188 C 357.609375 203.59375 344.609375 208.394531 335.308594 217.195312 C 340.109375 209.792969 344.609375 202.09375 349.308594 194.792969 C 352.210938 190.195312 355.109375 185.59375 358.007812 180.992188 C 358.210938 180.992188 358.410156 180.992188 358.609375 180.992188 C 369.710938 177.394531 377.910156 169.292969 386.007812 161.394531 C 396.910156 150.695312 407.910156 142.792969 422.507812 137.792969 C 428.507812 135.792969 434.808594 133.394531 441.109375 132.292969 C 449.910156 130.792969 452.410156 139.695312 458.007812 144.195312 C 466.308594 150.992188 478.410156 152.394531 485.410156 160.792969 C 484.808594 160.792969 484.308594 160.792969 483.710938 160.792969 C 476.910156 160.492188 470.410156 159.894531 463.609375 160.894531 C 434.710938 164.992188 413.007812 186.394531 395.808594 208.394531 C 395.109375 209.292969 396.308594 210.695312 397.109375 209.695312 C 410.808594 193.292969 426.808594 177.695312 447.109375 170.09375 C 454.210938 167.394531 461.507812 165.894531 469.007812 165.59375 C 460.808594 173.792969 452.808594 181.292969 443.210938 188.195312 C 434.507812 194.492188 425.609375 200.695312 418.109375 208.292969 C 409.507812 216.992188 404.910156 227.492188 399.507812 238.292969 C 392.609375 252.292969 382.210938 263.09375 367.410156 268.59375 C 366.609375 268.894531 367.007812 270.09375 367.710938 269.792969 C 378.507812 265.996094 387.910156 259.695312 394.808594 250.496094 C 403.710938 238.492188 407.308594 223.59375 417.609375 212.394531 C 426.210938 202.992188 437.007812 195.992188 447.308594 188.492188 C 456.109375 182.09375 466.308594 174.992188 472.007812 165.394531 C 473.710938 165.394531 475.410156 165.394531 477.210938 165.59375 C 482.308594 165.992188 487.410156 166.695312 492.507812 165.894531 C 494.507812 165.59375 509.007812 162.292969 509.507812 166.992188 C 509.109375 166.695312 508.507812 166.695312 508.109375 167.195312 C 498.210938 178.695312 488.410156 188.992188 475.410156 197.09375 C 474.507812 197.695312 475.308594 198.992188 476.210938 198.492188 C 488.410156 191.992188 500.210938 182.894531 508.109375 171.394531 C 508.308594 173.09375 510.609375 174.492188 512.007812 172.894531 C 516.808594 167.292969 512.609375 159.792969 505.710938 158.59375 C 500.910156 157.695312 495.910156 159.09375 490.910156 160.09375 C 490.910156 160.09375 490.910156 159.992188 490.808594 159.992188 C 484.507812 149.09375 471.609375 147.894531 462.210938 140.894531 C 457.210938 137.195312 455.308594 129.992188 449.410156 127.492188 C 443.808594 125.195312 437.308594 127.59375 431.808594 129.195312 C 425.710938 130.992188 419.808594 132.992188 414.007812 135.492188 C 413.507812 133.394531 412.007812 131.292969 410.808594 129.695312 C 409.308594 127.59375 407.507812 125.394531 405.210938 124.09375 C 409.308594 119.09375 412.910156 113.792969 415.710938 107.792969 C 416.210938 106.894531 414.710938 105.894531 414.007812 106.992188" fill="#f7838d"/></g></g></svg>