<?xml version="1.0" encoding="UTF-8" standalone="no"?><svg xmlns="http://www.w3.org/2000/svg" xmlns:xlink="http://www.w3.org/1999/xlink" fill="#000000" height="51.4" preserveAspectRatio="xMidYMid meet" version="1" viewBox="0.0 -0.0 258.3 51.4" width="258.3" zoomAndPan="magnify"><g data-name="Layer 2"><g data-name="Layer 1"><g id="change1_1"><path d="M250.46,51.38H7.88A7.89,7.89,0,0,1,0,43.5V7.88A7.9,7.9,0,0,1,7.88,0H250.46a7.9,7.9,0,0,1,7.88,7.88V43.5A7.89,7.89,0,0,1,250.46,51.38ZM7.88,1A6.89,6.89,0,0,0,1,7.88V43.5a6.89,6.89,0,0,0,6.88,6.88H250.46a6.89,6.89,0,0,0,6.88-6.88V7.88A6.89,6.89,0,0,0,250.46,1Z" fill="#aa1945"/></g><g id="change2_1"><rect fill="#ebebeb" height="42.58" rx="5" width="250.22" x="4.06" y="4.4"/></g></g></g></svg>